# xmcd
#
# Track frame offsets:
#	150
#	16417
#	25174
#	35937
#	49766
#	64404
#	79706
#	93949
#	103965
#	115201
#	125716
#	137578
#	149328
#	162165
#	176579
#	188723
#	196722
#	206648
#
# Disc length: 2904 seconds
#
# Revision: 0
# Processed by: cddbd v1.5.2PL0 Copyright (c) Steve Scherf et al.
# Submitted via: EasyCDDAExtractor 16.0.8.2
#
DISCID=030b5612
DTITLE=Συλλογικός δίσκος - Oldies but goodies 08
DYEAR=2010
DGENRE=Ποικίλη
TTITLE0=Tammy - Αγόρι μου [ελλ. απόδ. Αθ. Τσόγκας]
TTITLE1=The Idols - Στη γωνιά του δρόμου [ελλ. απόδ. Αθ. Τσόγκας]
TTITLE2=The Sounds - Πες μου να ξέρω [ελλ. απόδ. Αθ. Τσόγκας]
TTITLE3=Μάνου Νέλλη - Σού τα χάρισα όλα [ελλ. απόδ. Σέβη Τηλιακού]
TTITLE4=Dave Caroll-Sing Sing Four - Να να να χέϊ χέϊ μην κλαις [ελλ. απ. Σέβη
TTITLE4=Τηλιακού]
TTITLE5=Τζαρντανέλλι Λάκης - Μ' αρέσει να γυρνώ [ελλ. απόδ. Σέβη Τηλιακού]
TTITLE6=The Forminx - And maybe more [Β. Παπαθανασίου-Ν. Μαστοράκης]
TTITLE7=Χρυσός Τέρης - Μύλος η καρδιά μου [ελλ. απόδ. Νότης Κύτταρης]
TTITLE8=Κουρούκλη Ζωή - Τζο ο τρομερός [ελλ. απόδ. Αθ. Τσόγκας]
TTITLE9=The Idols - Have you ever seen the rain
TTITLE10=Χριστίνα-The Sounds - Mr. Big Stuff
TTITLE11=Αντωνίου Νίκος - Τσιγγάνα [ελλ. απόδ. Αθ. Τσόγκας]
TTITLE12=The Charms - I' m coming back [Μαστοράκης/Ροζάκης-ίδιοι κ Πολλάτος]
TTITLE13=The Minis - And I love her
TTITLE14=Μίλλη - Μέσα στη βροχή [Ν. Λαβράνος-Βαρβ. Τσιμπούλη]
TTITLE15=Zoe with the Minis - The yupee ye-ye song[Ν. Μαστοράκης-Κ. Κλάββας]
TTITLE16=Άνευ ερμηνευτού - Greek jenka [οργανικό, Μ. Πλέσσας]
TTITLE17=Μαρίνα - Αν τύχει να περάσετε από εκεί [Γ. Ρωμανός-Δ. Ιατρόπουλος]
EXTD=
EXTT0=
EXTT1=
EXTT2=
EXTT3=
EXTT4=
EXTT5=
EXTT6=
EXTT7=
EXTT8=
EXTT9=
EXTT10=
EXTT11=
EXTT12=
EXTT13=
EXTT14=
EXTT15=
EXTT16=
EXTT17=
PLAYORDER=
